<?xml version="1.0" standalone="no"?>
<!DOCTYPE svg PUBLIC "-//W3C//DTD SVG 20010904//EN"
 "http://www.w3.org/TR/2001/REC-SVG-20010904/DTD/svg10.dtd">
<svg version="1.0" xmlns="http://www.w3.org/2000/svg"
 width="500.000000pt" height="500.000000pt" viewBox="0 0 500.000000 500.000000"
 preserveAspectRatio="xMidYMid meet">

<g transform="translate(0.000000,500.000000) scale(0.100000,-0.100000)"
fill="#000000" stroke="none">
<path d="M2300 3100 c0 -190 13 -221 97 -241 48 -10 114 6 147 36 28 26 36 23
36 -12 0 -22 4 -23 60 -23 l60 0 0 195 0 195 -69 0 -69 0 -4 -131 c-3 -116 -5
-132 -22 -145 -29 -20 -73 -18 -86 5 -5 11 -10 76 -10 145 l0 126 -70 0 -70 0
0 -150z"/>
<path d="M930 2676 l0 -256 80 0 80 0 0 95 0 95 33 0 c31 0 34 -4 80 -95 l47
-95 85 0 c47 0 85 3 85 6 0 4 -23 51 -52 104 l-52 98 43 39 c38 34 44 45 48
90 4 40 1 59 -17 90 -40 72 -60 78 -272 81 l-188 4 0 -256z m301 125 c20 -16
22 -23 14 -47 -10 -28 -13 -29 -83 -32 l-72 -3 0 51 0 50 59 0 c43 0 65 -5 82
-19z"/>
<path d="M1571 2805 c-83 -26 -131 -95 -131 -190 0 -130 76 -198 225 -198 123
-1 205 48 205 123 0 18 -6 20 -61 20 -55 0 -64 -3 -90 -31 -26 -28 -34 -31
-66 -26 -43 7 -59 21 -68 59 l-7 27 148 3 149 3 -3 40 c-2 22 -8 54 -13 72
-28 89 -167 136 -288 98z m139 -95 c39 -39 27 -50 -54 -50 -70 0 -74 1 -69 20
13 48 87 66 123 30z"/>
<path d="M2035 2813 c-95 -20 -135 -57 -135 -125 0 -66 44 -99 153 -118 75
-13 103 -29 94 -54 -10 -25 -92 -22 -114 4 -14 16 -30 20 -80 20 -68 0 -72 -4
-48 -49 36 -71 203 -99 308 -53 66 29 94 95 65 156 -17 39 -52 56 -147 75 -73
14 -86 20 -86 37 0 15 8 20 43 22 31 2 44 -1 48 -12 5 -12 22 -16 76 -16 67 0
69 1 63 23 -21 69 -137 112 -240 90z"/>
<path d="M2924 2801 c-23 -10 -45 -24 -48 -30 -12 -19 -26 -12 -26 14 0 24 -3
25 -60 25 l-60 0 0 -195 0 -195 70 0 70 0 0 123 c0 138 10 167 59 167 47 0 51
-13 51 -157 l0 -133 69 0 69 0 3 128 c4 145 12 165 63 160 46 -5 56 -34 56
-170 l0 -118 71 0 71 0 -4 158 c-2 132 -6 162 -21 186 -42 64 -148 71 -212 15
-34 -30 -34 -30 -45 -9 -14 25 -67 50 -107 50 -15 0 -47 -9 -69 -19z"/>
<path d="M3545 2806 c-107 -30 -162 -152 -121 -269 30 -82 98 -120 216 -120
118 0 186 38 205 116 l7 27 -69 0 c-64 0 -71 -2 -81 -24 -24 -52 -121 -41
-141 16 -6 17 -11 33 -11 34 0 2 68 4 151 4 l152 0 -6 51 c-4 28 -15 68 -25
88 -37 71 -167 108 -277 77z m133 -92 c12 -8 22 -24 22 -35 0 -17 -7 -19 -70
-19 -73 0 -84 8 -57 42 24 30 71 36 105 12z"/>
<path d="M2441 2571 c-7 -5 -21 -7 -30 -4 -9 2 -25 -3 -36 -12 -19 -16 -19
-16 9 -10 15 3 59 6 97 6 53 0 77 -5 103 -20 40 -25 43 -25 43 -6 0 20 -79 49
-111 41 -14 -3 -28 -2 -31 4 -8 12 -25 13 -44 1z"/>
<path d="M2510 2516 c0 -21 5 -26 26 -26 21 0 25 4 22 23 -2 14 -11 23 -25 25
-19 3 -23 -1 -23 -22z"/>
<path d="M2397 2517 c-3 -8 -2 -19 2 -26 11 -16 43 -2 39 18 -4 20 -34 26 -41
8z"/>
<path d="M2621 2488 l-23 -43 26 30 c21 25 34 55 23 55 -2 0 -14 -19 -26 -42z"/>
<path d="M2455 2480 c-3 -5 -1 -10 4 -10 6 0 11 5 11 10 0 6 -2 10 -4 10 -3 0
-8 -4 -11 -10z"/>
<path d="M2476 2434 c-17 -12 -17 -14 -4 -14 9 0 20 5 23 11 11 17 2 18 -19 3z"/>
<path d="M2452 2363 c-3 -62 10 -69 47 -23 30 37 30 40 11 40 -12 0 -18 5 -15
10 3 6 -4 10 -17 10 -21 0 -24 -5 -26 -37z"/>
<path d="M2120 2325 l0 -45 70 0 70 0 0 45 0 45 -70 0 -70 0 0 -45z"/>
<path d="M2990 2285 c0 -47 -1 -85 -3 -85 -1 0 -20 9 -42 20 -51 26 -90 25
-145 -2 -63 -32 -85 -79 -85 -183 0 -136 53 -200 162 -199 40 1 60 7 87 27 35
27 46 26 46 -5 0 -15 8 -18 60 -18 l60 0 0 265 0 265 -70 0 -70 0 0 -85z m-34
-163 c51 -34 42 -165 -13 -178 -75 -19 -116 60 -79 151 13 30 20 35 48 35 18
0 38 -4 44 -8z"/>
<path d="M1140 2096 l0 -256 178 0 c97 0 194 5 214 10 106 30 129 183 35 236
l-37 21 24 11 c54 24 76 114 42 167 -36 55 -54 60 -263 63 l-193 4 0 -256z
m298 132 c17 -17 15 -65 -4 -72 -9 -3 -42 -6 -75 -6 l-59 0 0 45 0 45 63 0
c36 0 68 -5 75 -12z m16 -194 c19 -18 20 -28 6 -55 -9 -16 -22 -19 -85 -19
l-75 0 0 45 0 45 69 0 c50 0 74 -4 85 -16z"/>
<path d="M2403 2285 c0 -38 2 -53 4 -32 2 20 2 52 0 70 -2 17 -4 1 -4 -38z"/>
<path d="M2554 2316 c-3 -19 -3 -40 1 -46 3 -5 -3 -26 -15 -45 -36 -59 -4 -75
50 -25 28 27 32 35 27 66 -7 39 -32 84 -47 84 -5 0 -12 -15 -16 -34z"/>
<path d="M3313 2231 c-44 -11 -93 -42 -114 -71 -26 -35 -39 -115 -28 -173 19
-105 88 -151 225 -150 96 0 147 20 181 72 40 60 33 71 -45 71 -60 0 -68 -2
-77 -22 -6 -15 -24 -26 -48 -32 -31 -8 -42 -6 -65 11 -15 11 -28 32 -30 46
l-3 27 147 0 147 0 -6 55 c-7 71 -33 114 -84 143 -46 25 -147 37 -200 23z
m122 -106 c39 -38 32 -45 -50 -45 -84 0 -96 12 -49 49 35 28 69 26 99 -4z"/>
<path d="M3830 2233 c-8 -3 -27 -17 -42 -31 l-27 -25 -7 27 c-6 24 -10 26 -65
26 l-59 0 0 -195 0 -195 75 0 75 0 0 110 c0 104 1 112 25 135 18 19 35 25 65
25 l41 0 -3 63 c-3 61 -3 62 -33 64 -16 1 -37 -1 -45 -4z"/>
<path d="M1660 2098 c0 -193 18 -241 98 -259 53 -12 109 2 150 36 l30 25 6
-30 c5 -29 7 -30 61 -30 l55 0 0 195 0 195 -70 0 -70 0 0 -128 c0 -112 -2
-131 -18 -145 -22 -20 -63 -22 -80 -5 -8 8 -12 55 -12 145 l0 133 -75 0 -75 0
0 -132z"/>
<path d="M2120 2035 l0 -195 70 0 70 0 0 195 0 195 -70 0 -70 0 0 -195z"/>
<path d="M2488 2132 c-69 -3 -78 -5 -84 -25 -11 -33 -8 -198 4 -227 7 -20 6
-28 -7 -40 -14 -14 -14 -15 8 -18 35 -5 71 7 71 23 0 8 4 15 9 15 4 0 7 33 5
73 l-4 72 18 -74 c10 -46 23 -76 32 -79 8 -3 28 -16 43 -28 16 -13 34 -24 41
-24 10 0 10 -13 0 -67 -21 -108 -28 -222 -14 -238 17 -20 38 -8 45 26 4 18 17
35 30 41 18 8 26 6 48 -16 14 -14 27 -36 29 -48 2 -17 10 -23 28 -23 24 0 25
4 30 65 l5 65 14 -47 c11 -40 18 -48 37 -48 19 0 26 9 39 52 8 28 16 65 16 82
1 17 5 -1 9 -41 8 -88 20 -105 73 -101 62 5 82 39 82 141 0 76 -2 85 -30 119
-16 21 -37 38 -46 38 -20 0 -44 -26 -63 -70 l-15 -35 -1 56 c0 36 -5 61 -14
68 -21 17 -29 -1 -41 -94 l-10 -80 -20 60 c-16 46 -25 61 -42 63 -30 4 -42
-22 -51 -110 l-8 -73 -7 69 c-11 94 -29 135 -64 142 -45 9 -59 40 -83 184 -12
74 -25 140 -29 145 -3 6 -39 9 -83 7z m546 -434 c14 -54 -6 -176 -25 -147 -17
26 -7 169 11 169 4 0 10 -10 14 -22z"/>
<path d="M2468 1804 c-24 -12 -28 -21 -28 -57 l0 -42 -45 0 c-52 -1 -62 20
-15 30 37 8 44 19 30 45 -13 25 -54 26 -108 4 l-39 -15 1 -117 c1 -93 5 -123
18 -144 17 -25 31 -30 53 -16 6 3 27 9 48 13 29 6 37 12 37 29 0 33 -18 45
-57 39 -32 -5 -34 -4 -31 17 2 15 15 26 43 37 81 29 75 32 75 -40 0 -77 6 -97
29 -97 28 0 41 22 41 68 0 35 5 48 25 64 62 49 71 114 21 164 -37 37 -57 41
-98 18z m72 -77 c-1 -7 -7 -23 -15 -37 l-14 -25 -1 25 c0 14 -3 36 -7 49 -5
21 -4 22 16 12 11 -7 21 -17 21 -24z"/>
<path d="M1920 1800 c-12 -7 -15 -36 -15 -152 0 -137 1 -143 21 -146 38 -5
125 111 144 193 5 19 8 -5 8 -67 1 -59 6 -104 13 -116 14 -22 53 -34 66 -21 4
4 24 12 43 17 27 7 34 13 32 28 -7 34 -21 43 -59 37 -32 -5 -35 -4 -30 11 4
10 7 21 7 26 0 4 15 11 33 14 17 4 43 15 56 25 20 16 22 21 11 41 -10 19 -17
21 -51 16 -31 -5 -39 -3 -39 9 0 8 8 15 18 15 10 0 26 6 36 13 16 12 17 17 6
37 -11 20 -17 22 -58 16 -25 -3 -57 -14 -71 -23 -18 -11 -26 -13 -29 -4 -9 28
-35 41 -80 41 -26 0 -54 -5 -62 -10z m86 -55 c6 -15 -11 -71 -28 -90 -6 -7 -5
67 2 103 1 9 22 -1 26 -13z"/>
</g>
</svg>
